<?xml version="1.0" encoding="UTF-8"?><svg id="_лой_2" xmlns="http://www.w3.org/2000/svg" viewBox="0 0 82.5 82.5"><defs><style>.cls-1{fill:#ff69eb;}.cls-1,.cls-2{stroke:#fff1d6;stroke-linecap:round;stroke-linejoin:round;stroke-width:2.5px;}.cls-2{fill:none;}</style></defs><g id="_лой_1-2"><circle class="cls-1" cx="41.25" cy="41.25" r="40"/><g><circle class="cls-2" cx="51.02" cy="18.38" r="6.24"/><circle class="cls-2" cx="27.07" cy="31.3" r="11.53"/><path class="cls-2" d="M27.26,23.77c-.69,.03-2.88,.23-4.82,1.93-2.45,2.15-2.64,5.06-2.66,5.6"/><circle class="cls-1" cx="46.61" cy="51.02" r="19.34"/><path class="cls-2" d="M43.4,37.07c-1.26,.31-3.88,1.15-6.33,3.44-2.65,2.49-3.64,5.31-3.99,6.56"/><path class="cls-2" d="M34,56.76c.56,1.17,1.9,3.57,4.64,5.51,2.97,2.1,5.93,2.49,7.23,2.59"/><g><line class="cls-2" x1="61.87" y1="23.83" x2="63.55" y2="25.51"/><line class="cls-2" x1="61.87" y1="30.22" x2="63.55" y2="28.54"/><line class="cls-2" x1="68.27" y1="23.79" x2="66.58" y2="25.47"/><line class="cls-2" x1="68.27" y1="30.22" x2="66.58" y2="28.54"/></g><g><line class="cls-2" x1="14.23" y1="57.33" x2="15.92" y2="59.02"/><line class="cls-2" x1="14.23" y1="63.73" x2="15.92" y2="62.05"/><line class="cls-2" x1="20.63" y1="57.29" x2="18.95" y2="58.97"/><line class="cls-2" x1="20.63" y1="63.73" x2="18.95" y2="62.05"/></g></g></g></svg>