<?xml version="1.0" encoding="UTF-8"?><svg id="_лой_2" xmlns="http://www.w3.org/2000/svg" viewBox="0 0 82.5 82.5"><defs><style>.cls-1{fill:none;}.cls-1,.cls-2{stroke:#c8102e;stroke-linecap:round;stroke-linejoin:round;stroke-width:2.5px;}.cls-2{fill:#fff1d6;}</style></defs><g id="_лой_1-2"><circle class="cls-2" cx="41.25" cy="41.25" r="40"/><g><rect class="cls-1" x="27.1" y="68.6" width="28.3" height="4.56" rx="1.11" ry="1.11"/><rect class="cls-1" x="13.26" y="37.93" width="55.99" height="4.56" rx="1.56" ry="1.56"/><path class="cls-1" d="M50.58,59.1H31.92c-1.38,0-7.89-.2-13.18-5.39-4.45-4.37-5.29-9.6-5.48-11.21h55.69c-.18,1.66-.95,6.61-5.02,10.87-5.25,5.49-12.03,5.72-13.35,5.73Z"/><rect class="cls-1" x="31.92" y="59.1" width="18.66" height="9.5" rx="1.3" ry="1.3"/><path class="cls-1" d="M27.04,30.43v-3.04c.77-3.35,3.78-5.73,7.19-5.69,3.33,.04,6.25,2.38,7.02,5.65v10.58"/><path class="cls-1" d="M34.15,14.98v-2.65c.29-1.72,1.8-3,3.55-3s3.26,1.27,3.55,3v15.02"/><path class="cls-1" d="M55.46,30.43v-3.04c-.77-3.35-3.78-5.73-7.19-5.69-3.33,.04-6.25,2.38-7.02,5.65v10.58"/><path class="cls-1" d="M48.35,14.98v-2.65c-.29-1.72-1.8-3-3.55-3s-3.26,1.27-3.55,3v15.02"/></g></g></svg>