<?xml version="1.0" encoding="UTF-8"?>
<svg id="_лой_2" data-name=" лой 2" xmlns="http://www.w3.org/2000/svg" version="1.1" viewBox="0 0 82.5 82.5">
  <defs>
    <style>
      .cls-1 {
        fill: none;
      }

      .cls-1, .cls-2 {
        stroke: #f4f0ea;
        stroke-linecap: round;
        stroke-linejoin: round;
        stroke-width: 2.5px;
      }

      .cls-2 {
        fill: #50c5b7;
      }
    </style>
  </defs>
  <g id="_лой_1-2" data-name=" лой 1-2">
    <circle class="cls-2" cx="41.2" cy="41.3" r="40"/>
    <g>
      <rect class="cls-1" x="27.1" y="68.6" width="28.3" height="4.6" rx="1.1" ry="1.1"/>
      <rect class="cls-1" x="13.3" y="37.9" width="56" height="4.6" rx="1.6" ry="1.6"/>
      <path class="cls-1" d="M50.6,59.1h-18.7c-1.4,0-7.9-.2-13.2-5.4-4.4-4.4-5.3-9.6-5.5-11.2h55.7c-.2,1.7-.9,6.6-5,10.9-5.2,5.5-12,5.7-13.3,5.7Z"/>
      <rect class="cls-1" x="31.9" y="59.1" width="18.7" height="9.5" rx="1.3" ry="1.3"/>
      <path class="cls-1" d="M27,30.4v-3c.8-3.4,3.8-5.7,7.2-5.7,3.3,0,6.2,2.4,7,5.6v10.6"/>
      <path class="cls-1" d="M34.2,15v-2.6c.3-1.7,1.8-3,3.5-3s3.3,1.3,3.5,3v15"/>
      <path class="cls-1" d="M55.5,30.4v-3c-.8-3.4-3.8-5.7-7.2-5.7-3.3,0-6.2,2.4-7,5.6v10.6"/>
      <path class="cls-1" d="M48.3,15v-2.6c-.3-1.7-1.8-3-3.5-3s-3.3,1.3-3.5,3v15"/>
    </g>
  </g>
</svg>