<?xml version="1.0" encoding="utf-8"?>
<!-- Generator: Adobe Illustrator 28.3.0, SVG Export Plug-In . SVG Version: 6.00 Build 0)  -->
<svg version="1.1" id="_лой_2" xmlns="http://www.w3.org/2000/svg" xmlns:xlink="http://www.w3.org/1999/xlink" x="0px" y="0px"
	 viewBox="0 0 200 200" style="enable-background:new 0 0 200 200;" xml:space="preserve">
<style type="text/css">
	.st0{fill:#FFF1D6;}
</style>
<g>
	<path class="st0" d="M68.5,173.4c1.3,1.3,3.4,0.4,7,0.3c3.7-0.1,5,0.9,11.2,2.9c4.6,1.4,10.2,3.2,15.9,3.6
		c3.3,0.2,8.2,0.1,14.3-1.7c0.2-0.1,0.6-0.5,0.9-1.2c0.3-0.8,0.1-1.5,0-1.7c0.1-1.3,0-3.1-0.8-5.1c-1.1-2.6-2.9-4.1-3.4-4.5
		c-4.8-4.2-6.4-21.3-3.2-38.1c2-10.5,7.5-18.1,17.8-21.7c7.3-2.6,14.8-4.8,21.9-7.6c11.9-4.8,22.5-11.5,29.3-22.9
		c4.6-7.6,6.4-15.8,4.3-24.5c-0.7-3.2-2.5-5.5-5.9-6c-3.2-0.5-5.9,0.7-7.2,3.6c-2.1,4.7-6.4,5.6-11.1,4.7c-2-0.4-4.8-0.3-6.2,0.8
		c-5.3,4.4-11.3,4.4-17.3,3.1c-9.5-2-18.7-1.8-27.6,2.2c-0.8,0.4-2.4,0.2-3.1-0.3c-7.5-6.1-16.1-9-25.7-9.5
		c-6.4-0.4-12.4-2-16.5-7.8c-1-1.4-3.6-2.1-5.5-2.3c-6.3-0.7-7.6-1.6-9.6-7.7c-1.1-3.2-3.3-5.1-6.5-5.3c-3-0.2-5.2,1.5-6.7,4.1
		c-4.6,8-4.8,16.5-2.4,25.1C35.4,67.1,42.6,76,51.7,83.2c6.3,5,13.1,9.5,19.9,13.9c11.7,7.5,15.5,18.3,13.3,31.5
		c-1.1,6.6-2.1,31.2-15.2,36.2c-0.3,0.1-0.5,0.2-0.6,0.2C67.8,168,66.8,171.8,68.5,173.4L68.5,173.4z"/>
	<path class="st0" d="M176.3,52.9c-4.2,6.9-10.1,8.8-17.4,7.5c-1-0.2-2.3,0-3.1,0.6c-5.9,3.9-12.4,4.5-19.1,3.5
		c-3.2-0.5-6.3-1.2-9.5-1.5c-8-0.7-15.3,1.6-21.7,6.2c-2.3-2.1-4.3-4.2-6.5-6c-6.3-5.1-13.9-6.3-21.8-6.9c-7.2-0.5-13.8-3-18.7-8.8
		c-0.5-0.6-1.4-1.1-2.2-1.1c-7.7-0.6-13.1-4.2-15.4-12.5c-0.8,1.7-1.6,2.9-2,4.2c-1.9,6.2-1.3,12.3,0.9,18.2
		c4.5,11.8,13.4,19.9,23.4,26.9c5.4,3.7,10.9,7.2,16.1,11.1c7.2,5.4,11.5,12.7,12.7,21.8c1.4,10.8-1.2,20.9-5.3,30.7
		c-2.8,6.7-6.2,13.1-9.4,19.8c10.2,1.6,19.4,8.1,30.4,6.4c0-0.5,0.1-0.8,0-1.1c-0.2-0.9-0.4-1.7-0.7-2.6
		c-3.2-11.4-5.1-22.9-4.7-34.7c0.6-18.7,8.8-30,26.5-36.4c9.5-3.4,19.2-6.7,28.3-11.3c9.7-4.8,16.9-12.6,19.5-23.6
		C177.6,60.1,178.2,56.7,176.3,52.9L176.3,52.9z"/>
</g>
</svg>
