<?xml version="1.0" encoding="UTF-8"?>
<svg id="_лой_2" data-name=" лой 2" xmlns="http://www.w3.org/2000/svg" version="1.1" viewBox="0 0 82.5 82.5">
  <defs>
    <style>
      .cls-1 {
        fill: none;
      }

      .cls-1, .cls-2 {
        stroke: #f4f0ea;
        stroke-linecap: round;
        stroke-linejoin: round;
        stroke-width: 2.5px;
      }

      .cls-2 {
        fill: #00a6fb;
      }
    </style>
  </defs>
  <g id="_лой_1-2" data-name=" лой 1-2">
    <circle class="cls-2" cx="41.2" cy="41.3" r="40"/>
    <g>
      <rect class="cls-1" x="28.3" y="30.4" width="26.4" height="34"/>
      <circle class="cls-1" cx="41.5" cy="44.7" r="7.2"/>
      <circle class="cls-1" cx="41.5" cy="44.7" r="3.2"/>
      <rect class="cls-1" x="20.6" y="64.5" width="41.5" height="3.5" rx="1" ry="1"/>
      <rect class="cls-1" x="26.3" y="26.9" width="30.5" height="3.2" rx="1.4" ry="1.4"/>
      <path class="cls-1" d="M35.9,11.8h11.2c.9,0,1.6.7,1.6,1.6h0c0,.9-.7,1.6-1.6,1.6h-11.2c-.9,0-1.6-.7-1.6-1.6h0c0-.9.7-1.6,1.6-1.6Z"/>
      <path class="cls-1" d="M39.2,9.8h0c0-1.1.9-1.9,1.9-1.9h.7c1.1,0,1.9.9,1.9,1.9h0c0,1.1-.9,1.9-1.9,1.9h-.7c-1.1,0-1.9-.9-1.9-1.9Z"/>
      <path class="cls-1" d="M34.7,14.9c-1,.6-3,1.9-4.5,4.3-2,3.3-2,6.5-1.9,7.7"/>
      <path class="cls-1" d="M48.4,14.9c1,.6,3,1.9,4.5,4.3,2,3.3,2,6.5,1.9,7.7"/>
      <path class="cls-1" d="M56.4,38.2h0c1,0,1.8.8,1.8,1.8v9c0,1-.8,1.8-1.8,1.8h0c-1,0-1.8-.8-1.8-1.8v-9c0-1,.8-1.8,1.8-1.8Z"/>
      <rect class="cls-1" x="58.6" y="40.9" width="3.5" height="7.2" rx="1.3" ry="1.3"/>
      <path class="cls-1" d="M26.1,50.7h0c-1,0-1.8-.8-1.8-1.8v-9c0-1,.8-1.8,1.8-1.8h0c1,0,1.8.8,1.8,1.8v9c0,1-.8,1.8-1.8,1.8Z"/>
      <rect class="cls-1" x="20.4" y="40.9" width="3.5" height="7.2" rx="1.3" ry="1.3"/>
    </g>
  </g>
</svg>