<?xml version="1.0" encoding="UTF-8"?><svg id="_лой_2" xmlns="http://www.w3.org/2000/svg" viewBox="0 0 200 200"><defs><style>.cls-1{fill:#fff1d6;}.cls-2{fill:#0057a3;}</style></defs><g id="_лой_1-2"><circle class="cls-1" cx="100" cy="100" r="100"/><g><path class="cls-2" d="M96.09,16.7c1.99,.48,4.03,.8,5.96,1.47,10.33,3.62,17.1,10.61,19,21.52,1.92,11-2.06,19.88-10.88,26.64-.21,.16-.41,.34-.84,.69,1.69,.93,3.24,1.85,4.84,2.66,9.61,4.87,19.92,7.52,30.44,9.5,.69,.13,1.39,.23,2.08,.38,2.37,.52,3.74,2.24,3.6,4.5-.15,2.31-1.63,4.08-4.01,4.13-7.64,.18-15.28,.38-22.91,.2-4.04-.09-8.06-.94-12.04-1.44-2.94,4.49-5.25,9.4-4.98,15.14,1.01,.29,2.1,.45,3.06,.89,2.9,1.34,4.17,4.74,3.24,8.19-.16,.59-.19,1.45,.13,1.91,5.16,7.47,6.79,15.88,6.46,24.72-.17,4.59-.93,9.15-1.42,13.72-.02,.21,0,.42,0,.7,2.98,1.2,5.93,1.19,8.84-.09,5.01-2.2,8.14-6.33,10.88-10.83,.2-.33,.18-.84,.13-1.25-.54-3.88-2.3-7.02-5.4-9.49-2.07-1.65-4.14-3.37-5.88-5.35-5.11-5.81-6.41-12.53-3.38-19.65,1.49-3.49,3.87-6.6,5.9-9.84,.7-1.11,1.82-1.36,3.01-.85,1.13,.48,1.39,1.45,1.47,2.65,.19,3.11,.2,6.3,.91,9.31,.87,3.67,3.3,6.07,7.32,6.66,3.44,.51,6.33,2.12,8.44,5.01,.26,.35,1,.65,1.41,.54,2.45-.61,4.88-.54,7.22,.23,4.91,1.62,8.72-.04,11.8-3.82,1.08-1.33,1.75-3.01,2.84-4.33,.57-.68,1.68-1.32,2.5-1.26,.72,.06,1.76,1,1.96,1.74,1.28,4.81,1.88,9.69,.62,14.61-.91,3.55-2.89,6.4-5.91,8.48-1.27,.87-2.61,.64-3.44-.51-.79-1.1-.7-2.49,.47-3.31,4.12-2.89,4.85-7.05,4.61-12.02-.57,.54-.93,.88-1.28,1.23-4.27,4.15-9.21,5.75-15.04,3.98-2.49-.76-4.85-.75-7.19,.65-1.65,.99-3.09,.4-3.71-1.5-.97-2.93-3.09-4.46-5.93-4.9-6.62-1.03-10.02-5.27-11.73-11.32-.09-.31-.18-.63-.25-.94-.07-.31-.12-.62-.27-1.38-1.87,3.44-2.81,6.66-2.22,10.2,.77,4.64,3.76,7.79,7.18,10.68,1.73,1.46,3.53,2.91,4.99,4.62,2.53,2.98,3.64,6.61,3.9,10.48,.07,1.08,.14,2.11,1.41,2.43,1.24,.31,1.69-.67,2.24-1.47,2.87-4.09,6.67-6.76,11.67-7.53,1.77-.27,2.75,.34,3.07,1.83,.32,1.5-.47,2.45-2.24,2.97-1.54,.46-3.12,.93-4.52,1.69-2.1,1.14-3.38,2.82-3.91,5.4-2.02,9.81-5.83,18.82-12.97,26.11-6,6.13-13.19,9.94-21.79,10.91-.31,.04-.62,.17-.92,.26h-6.51c-3.16-.73-6.41-1.17-9.45-2.23-14.65-5.13-23.25-15.81-26.89-30.56-2.59-10.49-1.91-20.97,1.54-31.24,.36-1.07,.74-2.17,1.29-3.15,1.28-2.28,2.2-4.38,1.68-7.3-.67-3.81,2.47-6.65,6.41-6.67,.37,0,.73,0,1.4,0-.51-2.91-.98-5.67-1.48-8.42-.05-.3-.27-.58-.46-.84-1.34-1.85-2.7-3.7-4.13-5.66-3.68,.57-7.77,1.32-11.9,1.81-7.3,.86-14.61,.74-21.91-.06-2.47-.27-4.05-1.99-4.17-4.41-.14-2.66,1.22-4.5,3.79-5.08,6.34-1.41,12.68-2.8,19.02-4.22,.78-.18,1.53-.49,2.79-.89-2.88-.58-5.3-1.04-7.7-1.55-5.94-1.25-11.86-2.57-18.01-2.15-6.86,.47-11.17,4.04-12.96,10.74-.25,.94-.92,2.03-1.72,2.49-1.31,.76-2.76-.12-3.22-1.73-3.86-13.43,2.09-25.89,15.62-30.24,3-.97,6.25-1.46,9.41-1.61,7.48-.35,13.02-3.64,16.69-10.11,.99-1.74,1.83-3.56,2.72-5.35,.82-1.64,2-2.2,3.38-1.57,1.37,.62,1.81,1.93,1.08,3.56-2.24,5.04-4.87,9.82-9.28,13.35-3.95,3.15-8.53,4.62-13.52,4.9-4.81,.27-9.48,1.04-13.71,3.54-4.57,2.7-7.25,6.72-8.28,11.88-.06,.32-.08,.65-.08,.97,0,.13,.07,.27,.16,.62,3.89-4.35,8.79-6.31,14.34-6.44,3.39-.08,6.84,.17,10.19,.68,6.63,1.03,13.22,2.33,19.82,3.55,2.94,.54,5.64,.22,8.16-1.58,2.24-1.6,4.65-2.96,6.97-4.43-1.44-1.9-2.97-3.54-4.04-5.45-1.07-1.9-1.94-4.01-2.44-6.13-.66-2.79,.29-3.57,3.11-4.08,2.91-.52,5.84-1.2,8.58-2.27,3.81-1.48,6.57-4.31,8.42-7.99,1.51-3.02,3.77-4.22,6.52-3.56,2.97,.71,4.61,2.87,4.64,6.19,.03,3.09,.03,6.18,.01,9.27-.03,4.21-1.69,7.78-4.36,10.94-.69,.82-1.38,1.64-2.07,2.47l.19,.48c.55-.14,1.18-.17,1.64-.45,10.96-6.66,13.94-20.88,6.67-31.66-7.17-10.62-22.19-13.32-32.82-5.9-.36,.25-.7,.51-1.06,.75-1.41,.92-2.75,.77-3.59-.39-.85-1.17-.59-2.52,.74-3.54,3.36-2.57,7.09-4.35,11.25-5.23,.94-.2,1.87-.43,2.81-.64h6.18Zm13.01,99.66c-9.75,6.34-19.29,6.32-28.89-.15-.35,.64-.73,1.29-1.06,1.97-2.52,5.26-3.77,10.83-3.95,16.63-.37,11.95,2.54,22.88,10.44,32.13,10.09,11.82,28.12,15.01,41.22,7.24,8.79-5.21,13.96-13.23,17.06-22.75,.34-1.04,.59-2.11,.83-2.98-1.72-.59-3.23-1.11-4.73-1.62-1.51,1.67-3.01,3.53-4.72,5.16-3.37,3.21-7.25,5.53-12,5.93-6.78,.57-11.78-2.96-16.36-7.32-1-.95-.9-2.19,.06-3.21,.95-1,2.08-1.14,3.2-.27,.96,.74,1.88,1.54,3.04,2.5,1.73-11.74,2.47-22.97-4.14-33.25Zm-24.56-62.9c.26,.55,.49,1.43,1.02,2.07,1.71,2.08,3.45,4.15,5.33,6.08,1.63,1.68,1.71,3-.09,4.49-.71,.59-1.46,1.13-2.2,1.68-10.66,7.91-22.81,12.29-35.66,14.98-2.23,.47-4.47,.88-6.7,1.32,10.6,1.1,21.06,.66,31.35-2.01,.61-.16,1.28-.75,1.58-1.32,1.11-2.14,2.6-3.88,4.76-4.96,5.06-2.54,10.36-3.5,15.92-2.1,4.16,1.04,8.1,2.49,10.29,6.67,.34,.64,1.16,1.26,1.87,1.44,9.46,2.36,19.1,2.22,28.96,1.88-.32-.19-.44-.29-.57-.33-.36-.11-.73-.21-1.1-.28-12.27-2.25-23.84-6.36-34.37-13.14-2-1.29-3.95-2.67-5.82-4.15-1.86-1.47-1.82-2.79-.13-4.49,.92-.92,1.83-1.85,2.74-2.78,2.79-2.87,4.09-6.32,4.01-10.31-.05-2.44-.03-4.88-.14-7.32-.03-.59-.45-1.17-.7-1.75-.43,.41-1.02,.74-1.28,1.24-2.1,4.01-5.05,7.26-9.1,9.22-3.13,1.52-6.51,2.53-10,3.85Zm10.14,37.04h0c1.95,0,3.9,.06,5.85-.02,2.9-.12,5.08-2.12,5.58-4.99,.43-2.5-.78-4.52-3.49-5.72-5.18-2.29-10.38-2.32-15.58-.05-2.87,1.25-4.07,3.28-3.59,5.97,.51,2.84,2.72,4.72,5.71,4.8,1.84,.05,3.68,0,5.52,0Zm-6.46,4.93c.24,2.97,.42,5.78,.74,8.57,.06,.51,.56,1.16,1.02,1.39,2.58,1.27,5.29,1.43,8.05,.57,2.95-.92,3.17-1.21,3.32-4.2,.03-.65,.12-1.29,.19-1.94,.17-1.47,.34-2.94,.51-4.38h-13.83Zm4.93,20.55c4.9,.07,8.23-.49,11.1-2.4,1.39-.92,2.51-2.33,3.52-3.69,.35-.48,.29-1.84-.09-2.14-.53-.41-1.57-.33-2.34-.21-.54,.09-.97,.66-1.5,.92-1.59,.79-3.14,1.75-4.82,2.25-5.19,1.54-9.92,.31-14.29-2.75-1.02-.71-2.3-1.77-3.44-.36-1.02,1.26,.12,2.35,.88,3.28,3.21,3.98,7.67,4.97,10.99,5.1Z"/><path class="cls-2" d="M109.1,116.36c6.61,10.28,5.87,21.51,4.14,33.25-1.16-.96-2.08-1.76-3.04-2.5-1.13-.86-2.25-.73-3.2,.27-.96,1.01-1.05,2.26-.06,3.21,4.58,4.35,9.59,7.89,16.36,7.32,4.75-.4,8.64-2.72,12-5.93,1.71-1.63,3.21-3.5,4.72-5.16,1.5,.52,3.01,1.03,4.73,1.62-.24,.87-.49,1.94-.83,2.98-3.11,9.52-8.28,17.54-17.06,22.75-13.1,7.77-31.13,4.58-41.22-7.24-7.9-9.25-10.81-20.18-10.44-32.13,.18-5.8,1.42-11.37,3.95-16.63,.33-.68,.71-1.33,1.06-1.97,9.61,6.47,19.15,6.49,28.89,.15Z"/><path class="cls-2" d="M84.53,53.46c3.49-1.32,6.87-2.33,10-3.85,4.05-1.97,7-5.21,9.1-9.22,.26-.5,.84-.83,1.28-1.24,.24,.58,.67,1.16,.7,1.75,.11,2.44,.09,4.88,.14,7.32,.08,3.99-1.22,7.44-4.01,10.31-.91,.93-1.82,1.86-2.74,2.78-1.7,1.69-1.73,3.02,.13,4.49,1.87,1.48,3.82,2.86,5.82,4.15,10.54,6.78,22.1,10.89,34.37,13.14,.37,.07,.74,.17,1.1,.28,.14,.04,.25,.14,.57,.33-9.87,.33-19.5,.48-28.96-1.88-.71-.18-1.53-.8-1.87-1.44-2.2-4.18-6.13-5.63-10.29-6.67-5.56-1.4-10.86-.44-15.92,2.1-2.16,1.08-3.65,2.82-4.76,4.96-.3,.57-.97,1.16-1.58,1.32-10.29,2.67-20.75,3.11-31.35,2.01,2.23-.44,4.47-.86,6.7-1.32,12.85-2.69,25-7.06,35.66-14.98,.74-.55,1.49-1.09,2.2-1.68,1.8-1.48,1.72-2.81,.09-4.49-1.88-1.93-3.62-4-5.33-6.08-.53-.64-.76-1.52-1.02-2.07Z"/><path class="cls-2" d="M94.67,90.5c-1.84,0-3.68,.04-5.52,0-2.99-.08-5.2-1.96-5.71-4.8-.48-2.7,.72-4.72,3.59-5.97,5.2-2.26,10.4-2.24,15.58,.05,2.71,1.2,3.92,3.22,3.49,5.72-.5,2.87-2.68,4.87-5.58,4.99-1.95,.08-3.9,.01-5.85,.01h0Z"/><path class="cls-2" d="M88.21,95.43h13.83c-.17,1.44-.34,2.91-.51,4.38-.07,.65-.16,1.29-.19,1.94-.15,2.99-.38,3.28-3.32,4.2-2.76,.86-5.46,.7-8.05-.57-.47-.23-.97-.88-1.02-1.39-.31-2.79-.5-5.6-.74-8.57Z"/><path class="cls-2" d="M93.14,115.99c-3.32-.13-7.78-1.12-10.99-5.1-.76-.94-1.89-2.02-.88-3.28,1.14-1.41,2.42-.35,3.44,.36,4.37,3.06,9.09,4.29,14.29,2.75,1.68-.5,3.23-1.46,4.82-2.25,.53-.26,.97-.84,1.5-.92,.78-.12,1.82-.2,2.34,.21,.38,.3,.44,1.66,.09,2.14-1.01,1.36-2.13,2.77-3.52,3.69-2.87,1.91-6.19,2.47-11.1,2.4Z"/></g></g></svg>