<?xml version="1.0" encoding="UTF-8"?><svg id="_лой_2" xmlns="http://www.w3.org/2000/svg" viewBox="0 0 200 200"><defs><style>.cls-1{fill:#fff1d6;}.cls-2{fill:#0057a3;}</style></defs><g id="_лой_1-2"><circle class="cls-1" cx="100" cy="100" r="100"/><g><path class="cls-2" d="M73.03,166.84c1.13,1.09,2.98,.35,6.08,.29,3.2-.06,4.29,.82,9.69,2.49,3.97,1.23,8.81,2.73,13.75,3.08,2.89,.21,7.13,.12,12.39-1.45,.16-.11,.55-.43,.76-1,.26-.7,.05-1.31-.01-1.48,.06-1.09,.01-2.71-.7-4.42-.93-2.25-2.53-3.53-2.94-3.89-4.17-3.66-5.56-18.47-2.8-32.98,1.74-9.12,6.49-15.66,15.39-18.82,6.31-2.25,12.78-4.12,18.99-6.62,10.32-4.16,19.51-9.96,25.42-19.83,3.95-6.59,5.51-13.65,3.73-21.26-.64-2.74-2.17-4.73-5.1-5.2-2.77-.44-5.15,.61-6.25,3.1-1.78,4.05-5.55,4.89-9.65,4.04-1.71-.36-4.17-.29-5.37,.7-4.62,3.79-9.81,3.81-15.03,2.69-8.23-1.76-16.16-1.55-23.94,1.87-.73,.32-2.08,.18-2.67-.3-6.49-5.32-13.93-7.81-22.25-8.27-5.58-.31-10.72-1.71-14.3-6.74-.86-1.21-3.1-1.81-4.78-2.01-5.46-.62-6.59-1.37-8.34-6.64-.91-2.74-2.82-4.44-5.66-4.59-2.59-.13-4.47,1.26-5.78,3.57-3.95,6.96-4.16,14.27-2.05,21.74,2.8,9.9,9.03,17.55,16.89,23.8,5.47,4.35,11.32,8.25,17.2,12.05,10.13,6.53,13.41,15.82,11.52,27.31-.94,5.72-1.79,27.05-13.15,31.34-.23,.09-.43,.15-.56,.19-1.01,2.61-1.89,5.86-.46,7.23Z"/><path class="cls-2" d="M166.43,62.53c-3.68,5.94-8.77,7.62-15.07,6.49-.84-.15-1.97,.03-2.67,.49-5.11,3.38-10.7,3.94-16.57,3.04-2.75-.42-5.47-1.03-8.23-1.28-6.95-.61-13.25,1.35-18.79,5.39-2-1.85-3.73-3.65-5.66-5.19-5.5-4.39-12.03-5.5-18.85-5.98-6.28-.44-11.97-2.58-16.2-7.65-.42-.51-1.23-.91-1.89-.97-6.71-.53-11.39-3.6-13.35-10.84-.73,1.5-1.41,2.54-1.76,3.68-1.62,5.35-1.15,10.64,.82,15.79,3.91,10.23,11.61,17.21,20.31,23.27,4.64,3.24,9.47,6.22,13.98,9.63,6.23,4.71,9.95,10.99,10.98,18.86,1.22,9.37-1.04,18.13-4.55,26.62-2.41,5.81-5.39,11.38-8.15,17.13,8.82,1.35,16.79,7.02,26.32,5.58,.02-.41,.1-.71,.04-.97-.16-.75-.37-1.49-.58-2.22-2.8-9.84-4.39-19.81-4.07-30.09,.5-16.22,7.66-26.01,22.96-31.52,8.27-2.98,16.67-5.83,24.49-9.76,8.37-4.2,14.61-10.88,16.93-20.41,.71-2.9,1.22-5.87-.42-9.1Z"/></g></g></svg>