<?xml version="1.0" encoding="utf-8"?>
<!-- Generator: Adobe Illustrator 28.3.0, SVG Export Plug-In . SVG Version: 6.00 Build 0)  -->
<svg version="1.1" id="_лой_2" xmlns="http://www.w3.org/2000/svg" xmlns:xlink="http://www.w3.org/1999/xlink" x="0px" y="0px"
	 viewBox="0 0 200 200" style="enable-background:new 0 0 200 200;" xml:space="preserve">
<style type="text/css">
	.st0{fill:#FFF1D6;}
	.st1{fill:#0057A3;}
</style>
<g id="_лой_1-2">
	<circle class="st0" cx="100" cy="100" r="100"/>
	<g>
		<path class="st1" d="M73,166.8c1.1,1.1,3,0.4,6.1,0.3c3.2-0.1,4.3,0.8,9.7,2.5c4,1.2,8.8,2.7,13.8,3.1c2.9,0.2,7.1,0.1,12.4-1.4
			c0.2-0.1,0.6-0.4,0.8-1c0.3-0.7,0.1-1.3,0-1.5c0.1-1.1,0-2.7-0.7-4.4c-0.9-2.2-2.5-3.5-2.9-3.9c-4.2-3.7-5.6-18.5-2.8-33
			c1.7-9.1,6.5-15.7,15.4-18.8c6.3-2.2,12.8-4.1,19-6.6c10.3-4.2,19.5-10,25.4-19.8c3.9-6.6,5.5-13.7,3.7-21.3
			c-0.6-2.7-2.2-4.7-5.1-5.2c-2.8-0.4-5.1,0.6-6.2,3.1c-1.8,4-5.6,4.9-9.6,4c-1.7-0.4-4.2-0.3-5.4,0.7c-4.6,3.8-9.8,3.8-15,2.7
			c-8.2-1.8-16.2-1.6-23.9,1.9c-0.7,0.3-2.1,0.2-2.7-0.3c-6.5-5.3-13.9-7.8-22.2-8.3c-5.6-0.3-10.7-1.7-14.3-6.7
			c-0.9-1.2-3.1-1.8-4.8-2c-5.5-0.6-6.6-1.4-8.3-6.6c-0.9-2.7-2.8-4.4-5.7-4.6c-2.6-0.1-4.5,1.3-5.8,3.6c-4,7-4.2,14.3-2,21.7
			c2.8,9.9,9,17.6,16.9,23.8c5.5,4.3,11.3,8.2,17.2,12.1c10.1,6.5,13.4,15.8,11.5,27.3c-0.9,5.7-1.8,27.1-13.2,31.3
			c-0.2,0.1-0.4,0.1-0.6,0.2C72.5,162.2,71.6,165.5,73,166.8L73,166.8z"/>
		<path class="st1" d="M166.4,62.5c-3.7,5.9-8.8,7.6-15.1,6.5c-0.8-0.2-2,0-2.7,0.5c-5.1,3.4-10.7,3.9-16.6,3
			c-2.8-0.4-5.5-1-8.2-1.3c-6.9-0.6-13.2,1.3-18.8,5.4c-2-1.8-3.7-3.7-5.7-5.2c-5.5-4.4-12-5.5-18.8-6c-6.3-0.4-12-2.6-16.2-7.7
			c-0.4-0.5-1.2-0.9-1.9-1c-6.7-0.5-11.4-3.6-13.3-10.8c-0.7,1.5-1.4,2.5-1.8,3.7c-1.6,5.3-1.2,10.6,0.8,15.8
			c3.9,10.2,11.6,17.2,20.3,23.3c4.6,3.2,9.5,6.2,14,9.6c6.2,4.7,9.9,11,11,18.9c1.2,9.4-1,18.1-4.6,26.6
			c-2.4,5.8-5.4,11.4-8.2,17.1c8.8,1.4,16.8,7,26.3,5.6c0-0.4,0.1-0.7,0-1c-0.2-0.8-0.4-1.5-0.6-2.2c-2.8-9.8-4.4-19.8-4.1-30.1
			c0.5-16.2,7.7-26,23-31.5c8.3-3,16.7-5.8,24.5-9.8c8.4-4.2,14.6-10.9,16.9-20.4C167.6,68.7,168.1,65.7,166.4,62.5L166.4,62.5z"/>
	</g>
</g>
</svg>
