<?xml version="1.0" encoding="UTF-8"?><svg id="_лой_2" xmlns="http://www.w3.org/2000/svg" viewBox="0 0 82.5 82.5"><defs><style>.cls-1{fill:#c8102e;}.cls-2{fill:none;}.cls-2,.cls-3{stroke:#c8102e;stroke-linecap:round;stroke-linejoin:round;stroke-width:2.5px;}.cls-3{fill:#fff1d6;}</style></defs><g id="_лой_1-2"><circle class="cls-3" cx="41.25" cy="41.25" r="40"/><g><polyline class="cls-2" points="34.51 55.92 30.52 69.95 30.51 69.99"/><polyline class="cls-2" points="47.99 55.92 51.98 69.95 51.99 69.99"/><g><path class="cls-2" d="M30.45,12.58c-8.58,3.23-15.32,10.2-18.24,18.92-1.03,3.06-1.58,6.34-1.58,9.75,0,4.26,.87,8.31,2.44,12,3.27,7.69,9.6,13.76,17.46,16.7,3.34,1.25,6.96,1.94,10.73,1.94s7.39-.68,10.73-1.94c7.86-2.94,14.18-9.01,17.46-16.7,1.57-3.68,2.44-7.74,2.44-12,0-3.41-.56-6.69-1.58-9.75-2.93-8.72-9.67-15.69-18.24-18.92h0c-3.36-1.27-7-1.96-10.8-1.96s-7.44,.69-10.8,1.96"/><path class="cls-2" d="M47.73,27.72c3.42,1.64,6.12,4.54,7.51,8.11,.65,1.68,1.01,3.51,1.01,5.42,0,8.28-6.72,15-15,15-2.2,0-4.29-.47-6.17-1.32-5.21-2.36-8.83-7.59-8.83-13.68,0-1.91,.36-3.74,1.01-5.42,1.38-3.56,4.08-6.46,7.49-8.1,1.97-.95,4.18-1.48,6.5-1.48,2.07,0,4.04,.42,5.84,1.18,.22,.09,.43,.19,.64,.29Z"/><polyline class="cls-2" points="34.75 27.73 30.45 12.58 30.45 12.58"/><line class="cls-2" x1="47.73" y1="27.72" x2="52.05" y2="12.58"/></g><polyline class="cls-2" points="27.08 49.26 13.06 53.25 13.02 53.26"/><line class="cls-2" x1="27.08" y1="35.77" x2="13.02" y2="31.77"/><polyline class="cls-2" points="55.4 49.26 69.44 53.25 69.47 53.26"/><line class="cls-2" x1="55.4" y1="35.77" x2="69.47" y2="31.77"/><path class="cls-1" d="M48.36,26.78c-1.75-.44-4.11-.86-6.91-.86-2.78,0-5.13,.42-6.88,.86-1.38-4.85-2.75-9.7-4.13-14.55,2.69-.77,6.66-1.58,11.49-1.38,3.93,.17,7.19,.95,9.57,1.72l-3.15,14.21Z"/><path class="cls-1" d="M47.99,55.35c-1.75,.44-4.11,.86-6.91,.86-2.78,0-5.13-.42-6.88-.86-1.38,4.85-2.75,9.7-4.13,14.55,2.69,.77,6.66,1.58,11.49,1.38,3.93-.17,7.19-.95,9.57-1.72l-3.15-14.21Z"/><path class="cls-1" d="M26.58,34.5c-.44,1.75-.86,4.11-.86,6.91,0,2.78,.42,5.13,.86,6.88-4.85,1.38-9.7,2.75-14.55,4.13-.77-2.69-1.58-6.66-1.38-11.49,.17-3.93,.95-7.19,1.72-9.57l14.21,3.15Z"/><path class="cls-1" d="M55.4,35.34c.44,1.75,.86,4.11,.86,6.91,0,2.78-.42,5.13-.86,6.88,4.85,1.38,9.7,2.75,14.55,4.13,.77-2.69,1.58-6.66,1.38-11.49-.17-3.93-.95-7.19-1.72-9.57l-14.21,3.15Z"/></g></g></svg>