<?xml version="1.0" encoding="UTF-8"?><svg id="_лой_2" xmlns="http://www.w3.org/2000/svg" viewBox="0 0 82.5 82.5"><defs><style>.cls-1{fill:#329f5b;stroke-width:2.5px;}.cls-1,.cls-2{stroke:#fff1d6;stroke-linecap:round;stroke-linejoin:round;}.cls-2{fill:none;stroke-width:3px;}</style></defs><g id="_лой_1-2"><circle class="cls-1" cx="41.25" cy="41.25" r="40"/><g><circle class="cls-2" cx="61.86" cy="35.53" r="8.95"/><path class="cls-2" d="M72.44,49.7c-.82,0-2.01,.06-3.4,.35-.03,0-.54,.11-1.05,.26-2.25,.62-4.17,1.9-4.74,2.09-3.92,1.27-5.82-2.62-10.95-2.91-4.95-.28-5.33,3.22-10.6,3.24-5.71,.02-6.25-4.09-11.19-3.48-3.78,.47-6.28,3.23-10.6,2.97-.84-.05-1.71-.11-2.8-.46-1.9-.61-2.52-1.48-4.32-1.97-1.05-.29-2-.32-2.73-.27l2.45,.08,18.59-11.07c.1-.04,1.08-.47,1.33-1.55,.19-.82-.16-1.47-.25-1.62-1.02-1.75-2.04-3.5-3.06-5.25-.14-.26-.8-1.52-.36-3.09,.48-1.73,1.93-2.47,2.16-2.59,7.72-3.61,15.43-7.21,23.15-10.82,1.68-.43,3.44,.31,4.28,1.8,.87,1.54,.54,3.51-.79,4.71-5.31,2.67-10.62,5.34-15.93,8.02-.11,.04-1.1,.45-1.4,1.55-.32,1.15,.4,2.05,.47,2.12,3.68,5.32,8.62,12.44,12.3,17.76,1.74,.12,2.92,.61,3.69,1.03,.85,.47,1.31,.95,2.54,1.45,.35,.14,1.25,.51,2.13,.61,1.82,.19,3.16-.82,4.35-1.46,1.39-.75,3.53-1.52,6.73-1.47Z"/><path class="cls-2" d="M10.06,58.48c.73-.05,1.68-.02,2.73,.27,1.8,.5,2.43,1.36,4.32,1.97,1.1,.35,1.96,.41,2.8,.46,4.31,.27,6.82-2.49,10.6-2.97,4.94-.62,5.48,3.5,11.19,3.48,5.27-.02,5.64-3.52,10.6-3.24,5.13,.29,7.02,4.18,10.95,2.91,1.52-.49,2.12-1.36,4.74-2.09,1.81-.5,3.38-.6,4.45-.61"/></g></g></svg>