<?xml version="1.0" encoding="UTF-8"?>
<svg id="_лой_2" data-name=" лой 2" xmlns="http://www.w3.org/2000/svg" version="1.1" viewBox="0 0 82.5 82.5">
  <defs>
    <style>
      .cls-1 {
        fill: #329f5b;
        stroke-width: 2.5px;
      }

      .cls-1, .cls-2 {
        stroke: #f4f0ea;
        stroke-linecap: round;
        stroke-linejoin: round;
      }

      .cls-2 {
        fill: none;
        stroke-width: 3px;
      }
    </style>
  </defs>
  <g id="_лой_1-2" data-name=" лой 1-2">
    <circle class="cls-1" cx="41.2" cy="41.3" r="40"/>
    <g>
      <circle class="cls-2" cx="61.9" cy="35.5" r="8.9"/>
      <path class="cls-2" d="M72.4,49.7c-.8,0-2,0-3.4.3,0,0-.5.1-1.1.3-2.2.6-4.2,1.9-4.7,2.1-3.9,1.3-5.8-2.6-11-2.9-5-.3-5.3,3.2-10.6,3.2-5.7,0-6.2-4.1-11.2-3.5-3.8.5-6.3,3.2-10.6,3-.8,0-1.7-.1-2.8-.5-1.9-.6-2.5-1.5-4.3-2-1.1-.3-2-.3-2.7-.3h2.4c0,0,18.6-11,18.6-11,.1,0,1.1-.5,1.3-1.5.2-.8-.2-1.5-.2-1.6-1-1.8-2-3.5-3.1-5.2-.1-.3-.8-1.5-.4-3.1.5-1.7,1.9-2.5,2.2-2.6,7.7-3.6,15.4-7.2,23.1-10.8,1.7-.4,3.4.3,4.3,1.8.9,1.5.5,3.5-.8,4.7-5.3,2.7-10.6,5.3-15.9,8-.1,0-1.1.5-1.4,1.5-.3,1.1.4,2,.5,2.1,3.7,5.3,8.6,12.4,12.3,17.8,1.7.1,2.9.6,3.7,1,.8.5,1.3,1,2.5,1.5.3.1,1.2.5,2.1.6,1.8.2,3.2-.8,4.4-1.5,1.4-.8,3.5-1.5,6.7-1.5h0Z"/>
      <path class="cls-2" d="M10.1,58.5c.7,0,1.7,0,2.7.3,1.8.5,2.4,1.4,4.3,2,1.1.3,2,.4,2.8.5,4.3.3,6.8-2.5,10.6-3,4.9-.6,5.5,3.5,11.2,3.5,5.3,0,5.6-3.5,10.6-3.2,5.1.3,7,4.2,11,2.9,1.5-.5,2.1-1.4,4.7-2.1,1.8-.5,3.4-.6,4.4-.6"/>
    </g>
  </g>
</svg>